<?xml version="1.0" encoding="utf-8"?>
<!-- Svg Vector Icons : http://www.onlinewebfonts.com/icon -->
<!DOCTYPE svg PUBLIC "-//W3C//DTD SVG 1.1//EN" "http://www.w3.org/Graphics/SVG/1.1/DTD/svg11.dtd">
<svg version="1.1" xmlns="http://www.w3.org/2000/svg" xmlns:xlink="http://www.w3.org/1999/xlink" x="0px" y="0px" viewBox="0 0 1000 1000" enable-background="new 0 0 1000 1000" xml:space="preserve">
<metadata> Svg Vector Icons : http://www.onlinewebfonts.com/icon </metadata>
<g><g transform="translate(0.000000,511.000000) scale(0.100000,-0.100000)"><path d="M4499,4988.4c-1273.5-127.1-2481.1-780.9-3305.1-1791C140.6,1908-174.9,178.3,347.2-1419.8c483.5-1480,1641.2-2637.7,3121.2-3121.2c1021.5-333.7,2033.9-335.9,3050.8-2.3c1116.8,365.4,2033.9,1091.8,2667.2,2111.1c535.7,864.9,792.2,1981.7,692.3,2998.6c-127.1,1268.9-751.3,2474.3-1697.9,3268.8C7145.7,4706.9,5822.3,5120,4499,4988.4z M5443.3,4625.2c833.1-81.7,1625.3-395,2306.3-908c240.6-181.6,674.2-615.2,855.8-855.8c696.9-921.6,1021.5-2061.1,910.3-3184.8c-86.3-853.5-392.7-1632.1-914.8-2324.4c-177.1-233.8-610.6-667.4-844.4-844.4c-692.3-522.1-1470.9-828.5-2324.5-914.8c-1123.6-111.2-2263.2,213.4-3184.8,910.3c-240.6,181.6-674.2,615.2-855.8,855.8C36.2-847.7,174.7,1624.3,1716,3238.2C2687.5,4255.2,4051.8,4763.6,5443.3,4625.2z"/><path d="M4544.4,4262c-301.9-34.1-531.2-88.5-583.4-138.5c-31.8-29.5-52.2-74.9-52.2-118c0-106.7,315.5-1470.9,354.1-1527.7c47.7-74.9,115.8-81.7,374.5-38.6c288.3,47.7,631,34,923.9-38.6c242.9-59,311-47.7,356.4,54.5c34.1,74.9,351.8,1448.2,351.8,1518.6c0,84-97.6,149.8-295.1,197.5C5536.3,4275.6,4977.9,4311.9,4544.4,4262z M5645.3,3867c111.2-20.4,206.6-40.9,211.1-45.4c11.4-11.4-215.6-1035.1-231.5-1051c-6.8-4.5-65.8,2.3-131.6,18.2c-170.3,38.6-640.1,54.5-801.3,27.2c-74.9-11.3-140.8-18.2-145.3-13.6c-15.9,15.9-245.2,1041.9-236.1,1053.3c4.5,6.8,97.6,22.7,206.6,38.6C4773.6,3930.6,5382,3914.7,5645.3,3867z"/><path d="M2796.5,3671.8c-488-311-903.4-717.3-1228.1-1196.3c-161.2-240.6-190.7-338.2-127.1-417.7c31.8-40.9,1241.7-805.8,1323.4-835.3c95.3-36.3,156.6,11.4,308.7,229.3c174.8,258.8,385.9,472.1,608.3,622c242.9,161.2,272.4,190.7,272.4,270.1c0,49.9-109,240.6-390.4,694.6c-215.6,342.8-415.4,646.9-442.6,676.4C3048.4,3787.5,2964.5,3776.2,2796.5,3671.8z M3216.4,2902.3c145.3-229.3,272.4-433.6,283.8-454c15.9-31.8-6.8-59-122.6-143c-161.2-118-456.3-419.9-549.3-560.7c-34.1-49.9-74.9-88.5-90.8-81.7c-49.9,20.4-869.4,538-883,558.4c-22.7,36.3,233.8,363.2,474.4,603.8c204.3,204.3,597,522.1,617.4,501.7C2950.8,3322.2,3073.4,3131.5,3216.4,2902.3z"/><path d="M7020.9,3669.5c-49.9-27.2-733.2-1076-844.4-1300.7c-65.8-127.1-36.3-186.1,154.4-313.3c277-183.9,531.2-458.5,710.5-765c93-158.9,120.3-181.6,220.2-181.6c34.1,0,311,161.2,712.8,413.1c699.2,442.6,728.7,467.6,676.5,601.5c-40.9,109-304.2,490.3-485.8,708.2c-206.6,245.2-503.9,513-785.4,706C7161.6,3687.7,7100.3,3710.4,7020.9,3669.5z M7381.8,3086.1c236.1-186.1,540.3-508.5,721.9-762.7c77.2-111.2,138.5-202,136.2-204.3c-22.7-18.2-887.5-558.4-901.2-562.9c-9.1-2.3-79.5,77.2-156.6,179.3c-133.9,177.1-420,467.6-538,544.8c-31.8,20.4-56.8,49.9-52.2,65.8c15.9,68.1,553.9,896.6,578.8,892.1C7184.3,3233.7,7279.7,3165.6,7381.8,3086.1z"/><path d="M1014.6,1286c-47.7-40.9-68.1-95.3-102.1-267.9C792.1,425.7,792.1-155.4,914.7-716.1c49.9-231.5,102.1-308.7,211.1-308.7c38.6,0,397.2,77.2,794.5,168c624.2,143,730.9,174.8,769.5,220.2c47.7,59,45.4,72.6-18.2,417.7c-43.1,233.8-40.8,519.8,2.3,749.1c61.3,324.6,63.6,358.7,18.2,415.4c-36.3,43.1-161.2,77.2-787.7,220.2c-408.6,93.1-765,170.2-787.7,170.2S1046.3,1313.3,1014.6,1286z M1809,816.2c270.1-61.3,497.1-118,501.7-122.6c6.8-6.8,0-102.1-15.9-211.1c-15.9-129.4-20.4-297.4-11.3-463.1c9.1-143,18.2-295.1,20.4-338.2l4.5-77.2l-517.5-118c-283.7-63.6-519.8-111.2-524.4-104.4c-4.5,6.8-22.7,90.8-38.6,183.9c-65.8,365.4-22.7,1362,59,1362C1302.8,927.4,1536.6,877.4,1809,816.2z"/><path d="M8087.8,1077.2c-880.7-204.3-828.5-165.7-760.4-563c45.4-263.3,31.8-656-36.3-912.5C7198-766,7157.1-738.8,8069.6-945.3c410.9-93.1,762.7-170.2,785.4-170.2c99.9,0,156.6,84,204.3,301.9c138.5,622,149.8,1212.2,31.8,1786.5c-40.8,206.6-93,272.4-208.8,270.1C8836.9,1242.9,8480.5,1165.7,8087.8,1077.2z M8789.2,543.8c34-301.9,20.4-735.5-34-1035.1c-20.4-111.2-40.9-206.6-45.4-213.4c-13.6-11.4-1001,204.3-1037.4,227c-15.9,11.3-13.6,54.5,4.6,136.2c38.6,172.5,54.5,642.4,27.2,803.6c-11.3,74.9-20.4,138.5-15.9,143c4.6,4.5,240.6,61.3,526.6,127.1c338.2,77.2,522.1,109,531.2,93.1C8755.2,813.9,8775.6,686.8,8789.2,543.8z"/><path d="M4728.2,1163.5c-574.3-154.4-930.7-751.4-785.4-1314.3c152.1-581.1,746.8-942,1316.6-794.5c581.1,152.1,942,746.8,794.5,1312C5901.8,954.6,5298,1317.8,4728.2,1163.5z M5304.8,766.2c143-68.1,281.5-204.3,351.8-349.6c43.1-90.8,54.5-149.8,54.5-306.4c2.3-177.1-4.5-204.3-74.9-335.9c-86.3-158.9-156.6-227-329.2-317.8c-99.9-52.2-143-61.3-308.7-59c-156.6,0-215.7,11.3-306.4,54.5c-590.2,286-540.3,1123.6,79.4,1348.4C4914.4,852.5,5157.2,836.6,5304.8,766.2z"/><path d="M2101.9-1353.9c-347.3-220.2-658.3-424.5-685.5-458.5c-72.6-81.7-56.7-147.5,97.6-379.1c304.2-456.3,692.3-849,1141.8-1150.9c265.6-177.1,322.3-199.8,399.5-149.8c61.3,40.9,855.8,1287.1,871.7,1366.5c15.9,84-31.8,140.7-233.8,272.4c-242.9,161.2-497.1,415.4-658.3,658.3c-127.1,192.9-174.8,238.3-256.5,238.3C2755.6-956.7,2451.4-1136,2101.9-1353.9z M2798.7-1494.7c108.9-158.9,374.5-426.7,544.8-553.9l152.1-113.5l-281.5-447.2c-156.6-245.2-292.8-451.7-306.5-454c-40.8-15.9-365.5,247.4-601.5,481.2c-236.1,238.3-497.1,560.7-481.2,603.8c4.5,15.9,844.4,567.5,896.6,587.9C2723.8-1388,2760.2-1435.7,2798.7-1494.7z"/><path d="M7116.2-1018c-15.9-4.6-84-88.5-149.8-183.9c-206.6-292.8-481.2-544.8-771.8-708.2c-143-79.4-183.9-133.9-170.3-224.7c11.3-68.1,769.5-1287.1,839.9-1348.3c77.2-65.8,163.4-47.7,360.9,74.9c417.7,258.8,799,599.3,1089.6,976.1c274.7,351.8,333.7,479,263.3,569.8c-25,31.8-989.7,653.7-1253,805.8C7238.8-1004.4,7175.3-993,7116.2-1018z M7888-1837.4c145.3-90.8,265.6-177.1,265.6-190.7c0-72.6-417.7-538-678.7-753.6c-183.9-152.1-429-322.3-442.7-306.4c-29.5,29.5-558.4,885.3-558.4,901.2c0,11.4,56.8,59,124.8,104.4c156.6,104.4,431.3,363.2,556.2,524.4l95.3,122.6l183.9-115.8C7536.2-1615,7740.5-1744.4,7888-1837.4z"/><path d="M4206.1-2198.4c-45.4-36.3-74.9-147.5-220.2-778.6c-93.1-406.3-168-762.7-168-796.7c0-99.9,86.3-154.4,320.1-202c583.4-120.3,1137.3-120.3,1718.4,0c236.1,47.7,322.3,102.1,322.3,202c0,31.8-77.2,390.4-168,796.7c-145.3,631-177.1,742.3-220.2,778.6c-59,47.7-90.8,45.4-417.7-15.9c-99.9-18.2-267.9-34.1-374.5-34.1c-106.7,0-274.7,15.9-374.6,34.1C4296.9-2153,4265.1-2150.7,4206.1-2198.4z M4878-2607c143-6.8,315.5-2.3,440.4,15.9c147.6,18.2,211.1,20.4,222.5,2.3c25-36.3,240.6-1021.5,227-1032.8c-25-25-560.7-81.7-769.5-81.7c-211.1,0-744.6,56.8-769.5,81.7c-9.1,9.1,138.5,712.8,204.3,971.5l22.7,86.3l95.3-13.6C4603.4-2586.5,4750.9-2597.9,4878-2607z"/></g></g>
</svg>